# xmcd
#
# Track frame offsets: 
#        150
#        12052
#        24287
#        36010
#        46895
#        59077
#        74082
#        87890
#        103715
#        116370
#        128882
#        143162
#        156800
#        170310
#        181550
#        193502
#        206932
#        219410
#        237857
#        254000
#        263540
#
# Disc length: 3689 seconds
#
# Revision: 3
# Processed by: cddbd v1.5.2PL0 Copyright (c) Steve Scherf et al.
# Submitted via: ExactAudioCopy v1.1
#
DISCID=220e6715
DTITLE=Bob Wills and His Texas Playboys - San Antonio Rose - Disc 9
DYEAR=2000
DGENRE=Country
TTITLE0=The Devil Ain't Lazy (master - take 1) (mono)
TTITLE1=A Sweet Kind Of Love (mono)
TTITLE2=Hometown Stomp (inst) (master - take 1) (mono)
TTITLE3=Cowboy Stomp (inst) (mono)
TTITLE4=Misery (mono)
TTITLE5=Down In My Neck Of The Woods (master - take 1) (mono)
TTITLE6=Bob Wills Schottische (mono)
TTITLE7=I Just Don't Want That Kind Of Love (master - take 1) (mono)
TTITLE8=Texarkana Baby (master - take 1) (mono)
TTITLE9=Good Time Cake-Walk (mono)
TTITLE10=Can't Get Enough Of Texas (master - take 1) (mono)
TTITLE11=You're There (mono)
TTITLE12=Thanks For The Heartaches (Thanks For The Tears) (mono)
TTITLE13=New Texas Playboy Rag (master - take 1)v
TTITLE14=What's The Use To Take You Back Again (mono)
TTITLE15=Deep Water (mono)
TTITLE16=Have I Stayed Away Too Long (radio aircheck) (mono)
TTITLE17=Cimarron (KMTR radio aircheck) (mono)
TTITLE18=Stardust (KMJ radio aircheck) (mono)
TTITLE19=My Buddy (KMJ radio aircheck) (mono)
TTITLE20=Tears On My Pillow (KMJ radio aircheck) (mono)
EXTD=
EXTT0=
EXTT1=
EXTT2=
EXTT3=
EXTT4=
EXTT5=
EXTT6=
EXTT7=
EXTT8=
EXTT9=
EXTT10=
EXTT11=
EXTT12=
EXTT13=
EXTT14=
EXTT15=
EXTT16=
EXTT17=
EXTT18=
EXTT19=
EXTT20=
PLAYORDER=
